<svg xmlns="http://www.w3.org/2000/svg" viewBox="300 0 270 292" fill="none">
  <polygon fill="#ff8904" points="550.37,16.18 425.05,146.8 556.69,281.55 455.6,281.55 310.27,142.55 455.6,9.86 563.01,9.86 550.37,16.18" />
  <path fill="#ff8904" d="M305.13,126.79c-2.28,1.73-4.4,3.76-6.87,5.16-22.88,13-41.27,31.22-58.81,50.33-14.56,15.87-23.9,34-22.57,56.62.62,10.54,4,19.7,10.94,27.07a171.2,171.2,0,0,0,22.32,19.69C276,304.81,305.58,317,335.22,328.52c50.11,19.57,102,33,155,42.58,26.35,4.77,52.41,11.1,78.66,16.41,27.7,5.6,55.49,10.76,83.22,16.25,24.81,4.91,49.58,10.05,74.39,15,17,3.39,34,6.62,51,11.14-7.61,0-15.23.3-22.82-.07-12.39-.62-24.76-1.64-37.14-2.55q-37.11-2.73-74.23-5.53c-13.87-1.05-27.75-1.88-41.58-3.32-24.15-2.51-48.28-5.32-72.4-8.21q-25.85-3.11-51.63-6.76C423.6,395.7,370,385.23,317.64,369.59a689.9,689.9,0,0,1-67.51-23.77c-25.83-10.74-50.17-24.39-69.28-45.74-11.15-12.46-19.93-25.59-21.32-43.22-.74-9.29,1-17.66,3.45-26.11,4.59-15.81,14.79-28.46,26.39-39.21,25.77-23.92,56.36-40.73,88-55.58,8.78-4.12,18-7.33,27-11C304.62,125.6,304.87,126.2,305.13,126.79Z" transform="translate(-159.36 -104.87)" />
</svg>
