<svg id="Layer_1" data-name="Layer 1" xmlns="http://www.w3.org/2000/svg" xmlns:xlink="http://www.w3.org/1999/xlink" viewBox="0 0 589.56 310.11"><defs><style>.cls-1{fill:#ff8904;}.cls-2{fill:url(#linear-gradient);}</style><linearGradient id="linear-gradient" x1="197.18" y1="29" x2="632.86" y2="294.31" gradientUnits="userSpaceOnUse"><stop offset="0.04" stop-color="#9c9c9c"/><stop offset="0.4" stop-color="#9e9e9e"/><stop offset="0.57" stop-color="#a5a5a5"/><stop offset="0.69" stop-color="#b2b2b2"/><stop offset="0.8" stop-color="#c4c4c4"/><stop offset="0.89" stop-color="#dcdcdc"/><stop offset="0.97" stop-color="#f8f8f8"/><stop offset="0.98" stop-color="#fff"/></linearGradient></defs><title>Untitled-2</title><path class="cls-1" d="M324.47,145.88a61.87,61.87,0,0,1-6.55,4.92c-21.81,12.37-39.36,29.78-56.09,48-13.89,15.13-22.79,32.45-21.52,54,.59,10.06,3.78,18.79,10.43,25.82A163.77,163.77,0,0,0,272,297.4c24.66,18.26,52.88,29.85,81.14,40.88,47.8,18.66,97.3,31.47,147.8,40.61,25.13,4.55,50,10.59,75,15.65,26.42,5.35,52.93,10.26,79.37,15.5,23.67,4.68,47.29,9.59,70.95,14.31,16.21,3.23,32.45,6.31,48.69,10.62-7.26,0-14.53.29-21.77-.07-11.81-.58-23.61-1.56-35.41-2.43q-35.42-2.6-70.81-5.28c-13.22-1-26.46-1.78-39.65-3.16-23-2.4-46.05-5.07-69.05-7.83q-24.66-3-49.25-6.45c-51.59-7.4-102.69-17.38-152.66-32.3A662.12,662.12,0,0,1,272,354.78c-24.64-10.24-47.85-23.27-66.07-43.62-10.64-11.89-19-24.41-20.34-41.22-.7-8.87.95-16.85,3.29-24.91,4.38-15.08,14.11-27.14,25.17-37.4,24.57-22.81,53.76-38.84,83.94-53,8.37-3.93,17.15-7,25.74-10.45Z" transform="translate(-185.44 -124.97)"/><polygon class="cls-1" points="524.92 15.43 405.39 140.01 530.95 268.53 434.52 268.53 295.92 135.95 434.52 9.4 536.97 9.4 524.92 15.43"/><path class="cls-2" d="M342,125H448.62a4.55,4.55,0,0,1,3.52,1.2q31,29.7,62,59.32l16.11,15.4L472.65,255,341.77,125.55Z" transform="translate(-185.44 -124.97)"/></svg>