<svg id="Layer_1" data-name="Layer 1" xmlns="http://www.w3.org/2000/svg" xmlns:xlink="http://www.w3.org/1999/xlink" viewBox="0 0 687.79 141.86"><defs><style>.cls-1{fill:#ff8904;}.cls-2{fill:#fff;}.cls-3{fill:url(#linear-gradient);}.cls-4{fill:url(#linear-gradient-2);}.cls-5{fill:url(#linear-gradient-3);}.cls-6{fill:url(#linear-gradient-4);}.cls-7{fill:url(#linear-gradient-5);}.cls-8{fill:url(#linear-gradient-6);}.cls-9{fill:url(#linear-gradient-7);}</style><linearGradient id="linear-gradient" x1="654.94" y1="192.71" x2="795.29" y2="278.18" gradientUnits="userSpaceOnUse"><stop offset="0.04" stop-color="#9c9c9c"/><stop offset="0.67" stop-color="#e1e1e1"/><stop offset="0.98" stop-color="#fff"/></linearGradient><linearGradient id="linear-gradient-2" x1="89.76" y1="284.58" x2="789.76" y2="260.77" gradientUnits="userSpaceOnUse"><stop offset="0.03" stop-color="#fff"/><stop offset="0.98" stop-color="#fff"/></linearGradient><linearGradient id="linear-gradient-3" x1="89.86" y1="287.49" x2="789.86" y2="263.68" xlink:href="#linear-gradient-2"/><linearGradient id="linear-gradient-4" x1="89.98" y1="291.22" x2="789.98" y2="267.41" xlink:href="#linear-gradient-2"/><linearGradient id="linear-gradient-5" x1="90.04" y1="292.97" x2="790.04" y2="269.16" xlink:href="#linear-gradient-2"/><linearGradient id="linear-gradient-6" x1="90.15" y1="296.22" x2="790.15" y2="272.42" xlink:href="#linear-gradient-2"/><linearGradient id="linear-gradient-7" x1="90.25" y1="299.13" x2="790.25" y2="275.32" xlink:href="#linear-gradient-2"/></defs><title>log_new</title><path class="cls-1" d="M280.46,211.59c-11.69,5-23.54,9.57-35,15-14.26,6.72-28.48,13.55-42,21.75-11.15,6.77-22,13.9-30.8,23.69a37.81,37.81,0,0,0-5.48,7.86c-3.1,6.05-2.09,11.92,2,17.15a40.25,40.25,0,0,0,11.05,9.57c10.31,6.17,21.45,10.34,32.94,13.73a356.9,356.9,0,0,0,36,8.73c5.28,1,10.64,1.5,16,2.22-2.5-1.18-5-2.46-7.52-3.51-15.87-6.54-31.4-13.66-44.7-24.88a34.79,34.79,0,0,1-10.23-13.32c-1.6-3.89-2.15-7.8-.58-12,2-5.32,5.27-9.64,9-13.74,9.58-10.67,20.86-19.39,32.72-27.25s24.42-15.17,36.69-22.67c3-1.83,6.08-3.49,9.12-5.23A37.25,37.25,0,0,0,280.46,211.59Z" transform="translate(-136.36 -208.64)"/><path class="cls-1" d="M181.14,257.34a20,20,0,0,1-2.11,1.58c-7,4-12.68,9.59-18.07,15.47-4.47,4.87-7.34,10.45-6.93,17.39a12.74,12.74,0,0,0,3.36,8.32,52.57,52.57,0,0,0,6.86,6c7.94,5.88,17,9.61,26.14,13.17A256,256,0,0,0,238,332.4c8.1,1.47,16.1,3.41,24.17,5,8.51,1.72,17.05,3.31,25.57,5,7.62,1.51,15.23,3.09,22.85,4.61,5.23,1,10.46,2,15.69,3.42-2.34,0-4.68.1-7,0-3.81-.18-7.61-.5-11.41-.78q-11.42-.84-22.81-1.7c-4.26-.32-8.53-.57-12.77-1-7.43-.77-14.84-1.63-22.25-2.52-5.29-.64-10.58-1.32-15.86-2.08A338.87,338.87,0,0,1,185,331.93a210.66,210.66,0,0,1-20.74-7.3c-7.94-3.3-15.42-7.49-21.29-14.05-3.43-3.83-6.12-7.86-6.55-13.28a21.67,21.67,0,0,1,1.06-8c1.41-4.86,4.55-8.74,8.11-12,7.91-7.35,17.32-12.51,27-17.08,2.7-1.26,5.52-2.25,8.29-3.36Z" transform="translate(-136.36 -208.64)"/><path class="cls-2" d="M314.75,323.42h7.83c6.15,0,10.32,3.65,10.32,9.33s-4.06,9.72-10.42,9.72h-7.73Zm2.91,16.91h4.59c5.15,0,7.61-3.21,7.61-7.53,0-3.76-2.24-7.24-7.6-7.24h-4.6Z" transform="translate(-136.36 -208.64)"/><path class="cls-2" d="M338.68,322.36h2.75v3h-2.75Zm0,6.22h2.75v13.89h-2.75Z" transform="translate(-136.36 -208.64)"/><path class="cls-2" d="M361,341.22c0,4.45-2.11,7-7.32,7-4.84,0-6.33-2.36-6.62-4.25h2.81c.47,1.52,1.87,2.33,3.93,2.33,3.62,0,4.52-2,4.52-5.2V340c-.85,1.55-2.32,2.44-5,2.44-3.93,0-6.6-2.79-6.6-6.86,0-4.54,3-7.29,6.89-7.29,3,0,4.34,1.24,4.7,2.16,0-.63.09-1.55.13-1.84H361c0,.81-.05,2.68-.05,4Zm-11.41-5.77c0,2.93,1.75,4.91,4.35,4.91,3.45,0,4.45-2,4.45-5.1s-.94-5-4.35-5C351,330.29,349.54,332.44,349.54,335.45Z" transform="translate(-136.36 -208.64)"/><path class="cls-2" d="M367.22,322.36H370v3h-2.75Zm0,6.22H370v13.89h-2.75Z" transform="translate(-136.36 -208.64)"/><path class="cls-2" d="M374.2,328.58H377v-4.09h2.75v4.09h3.52v2h-3.52v8.14c0,1.35.38,2,1.82,2a6.91,6.91,0,0,0,1.4-.12v1.81a8.51,8.51,0,0,1-2.39.26c-2.48,0-3.58-1.12-3.58-3.43v-8.7H374.2Z" transform="translate(-136.36 -208.64)"/><path class="cls-2" d="M399.52,339.45a17.74,17.74,0,0,0,.23,3h-2.64a6.51,6.51,0,0,1-.26-1.81c-.56.92-1.83,2.14-4.93,2.14-3.76,0-5.37-2.13-5.37-4.24,0-3.1,2.8-4.52,7.54-4.52h2.72v-1.18c0-1.23-.45-2.72-3.43-2.72-2.67,0-3.12,1.15-3.41,2.23h-2.66c.21-1.91,1.57-4.12,6.16-4.11,3.9,0,6,1.39,6,4.55Zm-2.69-3.75h-2.58c-3.18,0-4.88.77-4.88,2.73,0,1.44,1.13,2.49,3.1,2.49,3.85,0,4.36-2.25,4.36-4.77Z" transform="translate(-136.36 -208.64)"/><path class="cls-2" d="M405.86,342.47V322.36h2.75v20.11Z" transform="translate(-136.36 -208.64)"/><path class="cls-2" d="M425.67,323.42H434c4.26,0,7.17,2.07,7.17,5.54,0,3.71-3.07,5.68-7.35,5.68h-5.22v7.83h-2.92Zm2.92,9.1h5.08c3,0,4.5-1.28,4.5-3.49s-1.82-3.49-4.39-3.49h-5.19Z" transform="translate(-136.36 -208.64)"/><path class="cls-2" d="M446.67,332.36c0-1.94,0-3,0-3.78h2.7c0,.39.08,1.48.08,2.84.84-1.88,2.74-3.09,5.38-3.16v2.39c-3.27.08-5.38,1.57-5.38,5.08v6.74h-2.75Z" transform="translate(-136.36 -208.64)"/><path class="cls-2" d="M460.81,336c0,2.82,1.66,4.83,4.36,4.83,2.53,0,3.35-1.13,3.86-2.15h2.77c-.63,1.78-2.34,4.15-6.71,4.15-5,0-7.06-3.55-7.06-7.12,0-4.13,2.39-7.42,7.24-7.42,5.14,0,6.83,3.59,6.83,6.55a10.77,10.77,0,0,1,0,1.16Zm8.5-1.7a3.85,3.85,0,0,0-4.08-4.12c-2.81,0-4.05,1.71-4.32,4.12Z" transform="translate(-136.36 -208.64)"/><path class="cls-2" d="M478.84,338.5c.46,1.52,1.75,2.41,3.91,2.41,2.35,0,3.27-.88,3.27-2.14s-.73-1.9-3.78-2.54c-4.56-1-5.51-2.18-5.51-4.07s1.66-3.9,5.76-3.9,5.8,2.07,6,4h-2.67c-.22-.9-1-2.15-3.46-2.15-2.24,0-2.9.93-2.9,1.84s.66,1.55,3.58,2.16c4.84,1,5.81,2.41,5.81,4.47,0,2.44-2.22,4.21-6.19,4.21-4.14,0-6.16-1.82-6.57-4.3Z" transform="translate(-136.36 -208.64)"/><path class="cls-2" d="M495.39,336c0,2.82,1.66,4.83,4.37,4.83,2.52,0,3.34-1.13,3.85-2.15h2.77c-.62,1.78-2.34,4.15-6.71,4.15-5,0-7.06-3.55-7.06-7.12,0-4.13,2.39-7.42,7.24-7.42,5.15,0,6.83,3.59,6.83,6.55a10.77,10.77,0,0,1,0,1.16Zm8.5-1.7a3.84,3.84,0,0,0-4.08-4.12c-2.81,0-4,1.71-4.32,4.12Z" transform="translate(-136.36 -208.64)"/><path class="cls-2" d="M511.94,332.08c0-1.2,0-2.42,0-3.5h2.68c.07.41.11,1.87.11,2.29.63-1.2,1.93-2.61,5-2.61s5.33,1.59,5.33,5.28v8.93H522.3v-8.62c0-2.1-.95-3.51-3.38-3.51-3,0-4.22,2-4.22,4.78v7.35h-2.76Z" transform="translate(-136.36 -208.64)"/><path class="cls-2" d="M543.91,338.22c-.68,2.4-2.54,4.58-6.6,4.58-4.39,0-7.11-2.75-7.11-7.2,0-3.92,2.55-7.34,7.31-7.34,4.6,0,6.19,2.85,6.4,4.64h-2.73a3.46,3.46,0,0,0-3.72-2.64c-2.82,0-4.42,2.11-4.42,5.26s1.55,5.29,4.32,5.29a3.72,3.72,0,0,0,3.81-2.59Z" transform="translate(-136.36 -208.64)"/><path class="cls-2" d="M550.46,336c0,2.82,1.65,4.83,4.36,4.83,2.53,0,3.34-1.13,3.85-2.15h2.78c-.63,1.78-2.34,4.15-6.71,4.15-5,0-7.07-3.55-7.07-7.12,0-4.13,2.39-7.42,7.24-7.42,5.15,0,6.84,3.59,6.84,6.55a10.77,10.77,0,0,1,0,1.16Zm8.49-1.7a3.84,3.84,0,0,0-4.08-4.12c-2.8,0-4,1.71-4.32,4.12Z" transform="translate(-136.36 -208.64)"/><path class="cls-2" d="M574.32,328.58h2.76v-4.09h2.76v4.09h3.52v2h-3.52v8.14c0,1.35.38,2,1.82,2a6.88,6.88,0,0,0,1.39-.12v1.81a8.44,8.44,0,0,1-2.38.26c-2.49,0-3.59-1.12-3.59-3.43v-8.7h-2.76Z" transform="translate(-136.36 -208.64)"/><path class="cls-2" d="M590.52,322.36v8.27a5.53,5.53,0,0,1,5-2.37c2.56,0,5.37,1.21,5.37,5.35v8.86h-2.74V334c0-2.36-1.15-3.67-3.47-3.67-2.87,0-4.14,1.65-4.14,4.54v7.59h-2.76V322.36Z" transform="translate(-136.36 -208.64)"/><path class="cls-2" d="M618.78,339.45a19.21,19.21,0,0,0,.22,3h-2.63a6.51,6.51,0,0,1-.26-1.81c-.56.92-1.83,2.14-4.93,2.14-3.76,0-5.37-2.13-5.37-4.24,0-3.1,2.8-4.52,7.54-4.52h2.72v-1.18c0-1.23-.45-2.72-3.43-2.72-2.67,0-3.12,1.15-3.41,2.23h-2.67c.22-1.91,1.58-4.12,6.16-4.11,3.9,0,6.06,1.39,6.06,4.55Zm-2.69-3.75h-2.58c-3.18,0-4.88.77-4.88,2.73,0,1.44,1.13,2.49,3.1,2.49,3.85,0,4.36-2.25,4.36-4.77Z" transform="translate(-136.36 -208.64)"/><path class="cls-2" d="M622.85,328.58h2.76v-4.09h2.75v4.09h3.52v2h-3.52v8.14c0,1.35.38,2,1.82,2a6.76,6.76,0,0,0,1.39-.12v1.81a8.44,8.44,0,0,1-2.38.26c-2.48,0-3.58-1.12-3.58-3.43v-8.7h-2.76Z" transform="translate(-136.36 -208.64)"/><path class="cls-2" d="M646.56,323.42h8.32c4.26,0,7.18,2.07,7.18,5.54,0,3.71-3.08,5.68-7.36,5.68h-5.21v7.83h-2.93Zm2.93,9.1h5.07c3,0,4.5-1.28,4.5-3.49s-1.82-3.49-4.39-3.49h-5.18Z" transform="translate(-136.36 -208.64)"/><path class="cls-2" d="M669.59,336c0,2.82,1.65,4.83,4.36,4.83,2.53,0,3.34-1.13,3.86-2.15h2.77c-.63,1.78-2.34,4.15-6.71,4.15-5,0-7.07-3.55-7.07-7.12,0-4.13,2.39-7.42,7.25-7.42,5.14,0,6.83,3.59,6.83,6.55a10.77,10.77,0,0,1,0,1.16Zm8.5-1.7a3.85,3.85,0,0,0-4.08-4.12c-2.81,0-4,1.71-4.32,4.12Z" transform="translate(-136.36 -208.64)"/><path class="cls-2" d="M686.13,332.36c0-1.94,0-3,0-3.78h2.7c0,.39.08,1.48.08,2.84.84-1.88,2.74-3.09,5.38-3.16v2.39c-3.27.08-5.38,1.57-5.38,5.08v6.74h-2.75Z" transform="translate(-136.36 -208.64)"/><path class="cls-2" d="M700.11,342.47V330.54h-2.57v-2h2.57v-1.66c0-2.55,1.13-4.83,4.65-4.83a8.11,8.11,0,0,1,1.77.18v2a7.08,7.08,0,0,0-1.4-.13c-1.65,0-2.26.86-2.26,2.89v1.51h3.2v2h-3.2v11.93Z" transform="translate(-136.36 -208.64)"/><path class="cls-2" d="M723.79,335.5c0,4-2.64,7.3-7.51,7.3-4.58,0-7.34-3.08-7.34-7.25s2.71-7.29,7.51-7.29C720.89,328.26,723.79,331.14,723.79,335.5Zm-12,0c0,3.05,1.74,5.27,4.61,5.27s4.56-2.11,4.56-5.26-1.63-5.28-4.62-5.28S711.78,332.36,711.78,335.53Z" transform="translate(-136.36 -208.64)"/><path class="cls-2" d="M729,332.36c0-1.94,0-3,0-3.78h2.7c0,.39.09,1.48.09,2.84.83-1.88,2.74-3.09,5.37-3.16v2.39c-3.27.08-5.37,1.57-5.37,5.08v6.74H729Z" transform="translate(-136.36 -208.64)"/><path class="cls-2" d="M741.38,332.17c0-1.2,0-2.46,0-3.59H744c0,.42.12,1.44.11,2.14a5,5,0,0,1,4.64-2.46c2.26,0,3.81,1,4.42,2.48a5.61,5.61,0,0,1,5.08-2.48c2.59,0,5,1.33,5,5.09v9.12h-2.71v-8.83c0-1.62-.66-3.31-3.16-3.31s-3.72,1.71-3.72,4.17v8H751v-8.76c0-1.78-.58-3.37-3.09-3.37s-3.79,1.8-3.79,4.45v7.68h-2.74Z" transform="translate(-136.36 -208.64)"/><path class="cls-2" d="M770.82,338.5c.46,1.52,1.75,2.41,3.91,2.41,2.35,0,3.27-.88,3.27-2.14s-.74-1.9-3.78-2.54c-4.56-1-5.51-2.18-5.51-4.07s1.65-3.9,5.76-3.9,5.8,2.07,6,4h-2.67c-.23-.9-1-2.15-3.46-2.15-2.24,0-2.9.93-2.9,1.84s.65,1.55,3.58,2.16c4.84,1,5.81,2.41,5.81,4.47,0,2.44-2.22,4.21-6.2,4.21s-6.15-1.82-6.56-4.3Z" transform="translate(-136.36 -208.64)"/><polygon class="cls-1" points="683.9 19.95 645.4 60.09 685.85 101.49 654.78 101.49 610.13 58.78 654.78 18.01 687.79 18.01 683.9 19.95"/><path class="cls-3" d="M701.59,223.63h34.35a1.49,1.49,0,0,1,1.14.39q10,9.57,20,19.11l5.19,5-18.57,17.43q-21.1-20.89-42.16-41.7Z" transform="translate(-136.36 -208.64)"/><path class="cls-4" d="M292.33,276.64l44.56,34h-22.4l-34.83-27.33H270v27.33H254.68V244.5H270v26.16h10.32q1.88-1.53,13.9-11.38t18.35-14.78h20.88Z" transform="translate(-136.36 -208.64)"/><path class="cls-5" d="M419.45,299.39v11.26H404.09v-6.8a41.09,41.09,0,0,0-.53-7.69,7.29,7.29,0,0,0-2.75-4.28,11.37,11.37,0,0,0-5.81-2.17,102.13,102.13,0,0,0-10.61-.41H358.7v21.35H343.34V244.5h49.84q15.84,0,21.11,4t5.28,15.72v2.46q0,7.27-2.58,11.08a13.7,13.7,0,0,1-8,5.34q6.23,1.29,8.33,4.51T419.45,299.39Zm-60.75-21.7h29.91q9.38,0,12.37-2t3-7.74v-1.41q0-6.69-2.81-8.44t-13.37-1.76H358.7Z" transform="translate(-136.36 -208.64)"/><path class="cls-6" d="M481.84,244.5l36.71,66.15H501.31l-6.92-13H450.06l-6.92,13H426.49l37.06-66.15Zm-25.68,41.87h32.48q-3.17-6-16.18-30.49-3.29,5.87-8.8,16.3T456.16,286.37Z" transform="translate(-136.36 -208.64)"/><path class="cls-7" d="M565.34,256.82v53.83H550V256.82H520.07V244.5h75.18v12.32Z" transform="translate(-136.36 -208.64)"/><path class="cls-8" d="M673,298.33v12.32H603.93V244.5H672.3v12h-53V271H669.6v11.73H619.29v15.59Z" transform="translate(-136.36 -208.64)"/><path class="cls-9" d="M736.45,298.74q-4,.3-10.68.3h-2q-6.57,0-10.32-.18a37,37,0,0,1-7.1-1,12.05,12.05,0,0,1-4.74-2,10,10,0,0,1-2.53-3.75,17.4,17.4,0,0,1-1.34-5.63q-.24-3-.24-8.33V277c0-3.52.08-6.29.24-8.33a18,18,0,0,1,1.34-5.69,10,10,0,0,1,2.53-3.81,12.75,12.75,0,0,1,4.74-2.05,34.11,34.11,0,0,1,7.1-1.06q3.75-.17,10.32-.17h2a105.86,105.86,0,0,1,14,.68v-12.5c-3.74-.25-8.24-.38-13.55-.38h-2.93q-9.49,0-15.48.41a54.15,54.15,0,0,0-11,1.82,21.69,21.69,0,0,0-7.57,3.46,15.62,15.62,0,0,0-4.34,6,29.72,29.72,0,0,0-2.28,8.8,115.93,115.93,0,0,0-.53,12.43v1.87a116.45,116.45,0,0,0,.53,12.38,28,28,0,0,0,2.34,8.79,16.33,16.33,0,0,0,4.46,6,21.67,21.67,0,0,0,7.56,3.52A53.17,53.17,0,0,0,708,311.06q6,.4,15.36.41h2.93q7.71,0,13.55-.46V298.42C738.75,298.54,737.65,298.66,736.45,298.74Z" transform="translate(-136.36 -208.64)"/></svg>