<?xml version="1.0" encoding="utf-8"?>
<!-- Generator: Adobe Illustrator 24.0.2, SVG Export Plug-In . SVG Version: 6.00 Build 0)  -->
<svg version="1.1" id="Layer_1" xmlns="http://www.w3.org/2000/svg" xmlns:xlink="http://www.w3.org/1999/xlink" x="0px" y="0px"
	 viewBox="0 0 626 136" style="enable-background:new 0 0 626 136;" xml:space="preserve">
<style type="text/css">
	.st0{fill:#FF8904;}
	.st1{fill:none;}
	.st2{fill:#FFFFFF;}
</style>
<g>
	<g>
		<path class="st0" d="M129.39,7.35c-9.35,3.97-18.82,7.66-28,11.98c-11.41,5.38-22.79,10.84-33.6,17.4
			c-8.92,5.41-17.61,11.12-24.64,18.95c-1.7,1.89-3.22,4.03-4.38,6.29c-2.48,4.84-1.68,9.53,1.61,13.71
			c2.43,3.09,5.45,5.64,8.84,7.66c8.25,4.93,17.16,8.27,26.35,10.98c9.49,2.8,19.08,5.18,28.81,6.98c4.22,0.78,8.51,1.21,12.77,1.78
			c-2-0.95-3.97-1.97-6.01-2.81c-12.7-5.24-25.13-10.92-35.76-19.9c-3.54-2.99-6.43-6.39-8.18-10.66c-1.28-3.11-1.72-6.24-0.47-9.62
			c1.57-4.25,4.22-7.71,7.16-10.99c7.66-8.54,16.69-15.51,26.17-21.8c9.58-6.35,19.53-12.14,29.35-18.14
			c2.39-1.46,4.86-2.79,7.3-4.18C134.07,5.38,131.73,6.36,129.39,7.35z"/>
	</g>
	<g>
		<path class="st0" d="M49.95,43.95c-0.56,0.43-1.08,0.92-1.69,1.27c-5.62,3.19-10.14,7.67-14.45,12.37
			c-3.58,3.9-5.87,8.36-5.55,13.92c0.15,2.59,0.97,4.84,2.69,6.65c1.67,1.77,3.53,3.39,5.49,4.84c6.35,4.71,13.63,7.69,20.91,10.53
			c12.32,4.81,25.07,8.11,38.09,10.47c6.48,1.17,12.88,2.73,19.33,4.03c6.81,1.38,13.64,2.64,20.45,3.99
			c6.1,1.21,12.19,2.47,18.28,3.69c4.18,0.83,8.36,1.63,12.55,2.74c-1.87,0-3.74,0.08-5.61-0.02c-3.05-0.15-6.09-0.4-9.13-0.63
			c-6.08-0.45-12.16-0.9-18.25-1.36c-3.41-0.26-6.82-0.46-10.22-0.81c-5.94-0.62-11.87-1.31-17.8-2.02
			c-4.24-0.51-8.47-1.06-12.69-1.66c-13.3-1.91-26.46-4.48-39.34-8.33c-5.61-1.68-11.18-3.59-16.59-5.84
			c-6.35-2.64-12.33-6-17.03-11.24c-2.74-3.06-4.9-6.29-5.24-10.62c-0.18-2.28,0.24-4.34,0.85-6.42c1.13-3.88,3.64-6.99,6.49-9.64
			c6.33-5.88,13.85-10.01,21.63-13.66c2.16-1.01,4.42-1.8,6.63-2.69C49.82,43.65,49.89,43.8,49.95,43.95z"/>
	</g>
</g>
<polygon class="st1" points="593.32,30.4 593.32,30.4 579.28,44.04 "/>
<polygon class="st1" points="554.05,67.26 569.89,83.59 569.89,83.59 554.05,67.26 "/>
<polygon class="st1" points="544.03,56.98 544.03,56.98 526.35,38.71 "/>
<polygon class="st0" points="518.35,30.41 527.19,39.55 544.87,57.82 555.3,47.39 538.92,30.41 "/>
<polygon class="st0" points="539.33,76.92 553.69,67.26 553.69,67.26 553.69,67.26 569.53,83.59 590.07,83.59 564.87,57.67 
	578.92,44.04 593.61,28.46 573.93,46.05 "/>
<polygon class="st2" points="522.71,87.13 573.64,45.28 601.97,20.01 580.99,21.88 501.98,102.86 505.34,106.23 528.13,85.89 
	523.91,88.73 "/>
<polygon class="st2" points="533.6,81.01 555.32,61.63 523.35,87.9 "/>
<polygon class="st2" points="555.32,61.63 573.64,45.28 522.71,87.13 523.91,88.73 528.13,85.89 533.6,81.01 523.35,87.9 "/>
<polygon class="st2" points="555.32,61.63 555.32,61.63 523.35,87.9 "/>
<g>
	<path class="st2" d="M155.35,56.46L191,83.67h-17.92l-27.86-21.86h-7.69v21.86h-12.29V30.76h12.29v20.92h8.26
		c1-0.81,4.71-3.85,11.12-9.1c6.41-5.25,11.3-9.19,14.68-11.82h16.7L155.35,56.46z"/>
	<path class="st2" d="M257.04,74.66v9.01h-12.29v-5.44c0-2.75-0.14-4.8-0.42-6.15c-0.28-1.34-1.02-2.49-2.2-3.42
		c-1.19-0.94-2.74-1.52-4.64-1.74c-1.91-0.22-4.74-0.33-8.49-0.33h-20.55v17.07h-12.29V30.76h39.87c8.44,0,14.07,1.06,16.89,3.19
		c2.81,2.13,4.22,6.32,4.22,12.57v1.97c0,3.88-0.69,6.83-2.06,8.87c-1.38,2.03-3.5,3.46-6.38,4.27c3.31,0.69,5.54,1.89,6.66,3.61
		C256.48,66.96,257.04,70.1,257.04,74.66z M208.45,57.31h23.92c5,0,8.3-0.53,9.9-1.59c1.59-1.06,2.39-3.13,2.39-6.19v-1.13
		c0-3.57-0.75-5.82-2.25-6.75c-1.5-0.94-5.07-1.41-10.69-1.41h-23.27V57.31z"/>
	<path class="st2" d="M306.95,30.76l29.36,52.91h-13.79l-5.54-10.41h-35.46l-5.54,10.41h-13.32l29.65-52.91H306.95z M286.41,64.25
		h25.99c-1.69-3.19-6-11.32-12.95-24.39c-1.75,3.13-4.1,7.47-7.04,13.04C289.47,58.46,287.47,62.25,286.41,64.25z"/>
	<path class="st2" d="M373.75,40.61v43.06h-12.29V40.61h-23.92v-9.85h60.14v9.85H373.75z"/>
	<path class="st2" d="M459.87,73.82v9.85h-55.26V30.76h54.69v9.57h-42.4v11.63h40.25v9.38H416.9v12.48H459.87z"/>
	<path class="st2" d="M510.62,74.15c-2.13,0.16-4.97,0.23-8.54,0.23h-1.59c-3.5,0-6.25-0.05-8.26-0.14c-2-0.09-3.89-0.36-5.68-0.8
		c-1.78-0.44-3.05-0.97-3.8-1.59c-0.75-0.62-1.42-1.63-2.02-3c-0.59-1.38-0.95-2.88-1.08-4.5c-0.13-1.63-0.19-3.85-0.19-6.66v-0.94
		c0-2.81,0.06-5.03,0.19-6.66c0.12-1.63,0.48-3.14,1.08-4.55c0.59-1.41,1.27-2.42,2.02-3.05c0.75-0.62,2.02-1.17,3.8-1.64
		c1.78-0.47,3.67-0.75,5.68-0.84c2-0.09,4.75-0.14,8.26-0.14h1.59c4.94,0,8.68,0.18,11.21,0.54v-10c-2.99-0.2-6.59-0.3-10.83-0.3
		h-2.35c-5.07,0-9.19,0.11-12.38,0.33c-3.19,0.22-6.11,0.7-8.77,1.45c-2.66,0.75-4.68,1.67-6.05,2.77
		c-1.38,1.09-2.53,2.71-3.47,4.83c-0.94,2.13-1.55,4.47-1.83,7.04c-0.28,2.56-0.42,5.88-0.42,9.94v1.5c0,4,0.14,7.3,0.42,9.9
		c0.28,2.6,0.91,4.94,1.88,7.04c0.97,2.1,2.16,3.71,3.57,4.83c1.41,1.13,3.42,2.06,6.05,2.81c2.63,0.75,5.54,1.23,8.73,1.45
		c3.19,0.22,7.29,0.33,12.29,0.33h2.35c4.11,0,7.71-0.12,10.83-0.36V73.89C512.47,73.99,511.58,74.08,510.62,74.15z"/>
</g>
<g>
	<path class="st2" d="M175.52,107.96h6.26c4.92,0,8.25,2.92,8.25,7.47c0,4.51-3.25,7.78-8.33,7.78h-6.18V107.96z M177.84,121.49
		h3.68c4.12,0,6.08-2.57,6.08-6.02c0-3.01-1.79-5.79-6.08-5.79h-3.68V121.49z"/>
	<path class="st2" d="M194.66,107.12h2.2v2.4h-2.2V107.12z M194.66,112.1h2.2v11.11h-2.2V112.1z"/>
	<path class="st2" d="M212.48,122.21c0,3.56-1.69,5.59-5.86,5.59c-3.87,0-5.06-1.89-5.29-3.4h2.25c0.37,1.22,1.5,1.86,3.14,1.86
		c2.9,0,3.62-1.6,3.62-4.16v-0.9c-0.68,1.25-1.85,1.95-3.99,1.95c-3.14,0-5.28-2.23-5.28-5.49c0-3.63,2.43-5.83,5.51-5.83
		c2.43,0,3.47,1,3.76,1.73c0.03-0.5,0.08-1.24,0.1-1.47h2.08c-0.01,0.64-0.04,2.14-0.04,3.21V122.21z M203.35,117.58
		c0,2.34,1.4,3.93,3.49,3.93c2.75,0,3.56-1.61,3.56-4.08c0-2.5-0.76-3.98-3.48-3.98C204.55,113.46,203.35,115.18,203.35,117.58z"/>
	<path class="st2" d="M217.49,107.12h2.2v2.4h-2.2V107.12z M217.49,112.1h2.2v11.11h-2.2V112.1z"/>
	<path class="st2" d="M223.07,112.1h2.21v-3.28h2.2v3.28h2.82v1.56h-2.82v6.51c0,1.08,0.3,1.63,1.46,1.63
		c0.31,0,0.76-0.01,1.11-0.09v1.44c-0.54,0.18-1.3,0.21-1.91,0.21c-1.99,0-2.87-0.9-2.87-2.74v-6.96h-2.21V112.1z"/>
	<path class="st2" d="M243.33,120.78c0,1.01,0.1,2.1,0.18,2.42h-2.11c-0.1-0.25-0.18-0.78-0.21-1.45c-0.45,0.74-1.46,1.72-3.94,1.72
		c-3.01,0-4.3-1.71-4.3-3.4c0-2.48,2.24-3.61,6.03-3.61c0.89,0,1.7,0,2.18,0v-0.95c0-0.98-0.36-2.18-2.75-2.18
		c-2.13,0-2.49,0.92-2.72,1.79h-2.13c0.17-1.53,1.26-3.3,4.93-3.29c3.12,0.01,4.85,1.11,4.85,3.64V120.78z M241.18,117.79
		c-0.41,0-1.38,0-2.07,0c-2.54,0-3.91,0.61-3.91,2.18c0,1.16,0.91,2,2.49,2c3.07,0,3.49-1.8,3.49-3.82V117.79z"/>
	<path class="st2" d="M248.4,123.21v-16.09h2.2v16.09H248.4z"/>
	<path class="st2" d="M264.25,107.96h6.65c3.41,0,5.74,1.66,5.74,4.44c0,2.97-2.46,4.54-5.88,4.54h-4.17v6.26h-2.34V107.96z
		 M266.59,115.24h4.06c2.4,0,3.6-1.02,3.6-2.79c0-1.86-1.45-2.79-3.51-2.79h-4.15V115.24z"/>
	<path class="st2" d="M281.05,115.11c0-1.55-0.02-2.43-0.02-3.02h2.16c0.03,0.31,0.07,1.18,0.07,2.27c0.67-1.5,2.19-2.47,4.3-2.53
		v1.91c-2.62,0.07-4.3,1.26-4.3,4.07v5.39h-2.2V115.11z"/>
	<path class="st2" d="M292.36,118c0.02,2.26,1.32,3.87,3.49,3.87c2.02,0,2.67-0.91,3.08-1.72h2.22c-0.5,1.42-1.87,3.32-5.37,3.32
		c-4.01,0-5.65-2.84-5.65-5.7c0-3.3,1.91-5.94,5.79-5.94c4.12,0,5.47,2.88,5.47,5.25c0,0.34,0,0.62-0.03,0.92H292.36z
		 M299.15,116.65c-0.03-1.83-1.08-3.3-3.26-3.3c-2.25,0-3.23,1.36-3.46,3.3H299.15z"/>
	<path class="st2" d="M306.78,120.03c0.37,1.21,1.4,1.93,3.13,1.93c1.88,0,2.61-0.7,2.61-1.71c0-1.04-0.59-1.52-3.02-2.04
		c-3.65-0.77-4.41-1.74-4.41-3.25c0-1.57,1.33-3.12,4.61-3.12c3.29,0,4.64,1.66,4.81,3.21h-2.13c-0.18-0.72-0.81-1.72-2.77-1.72
		c-1.79,0-2.32,0.75-2.32,1.48c0,0.83,0.52,1.24,2.87,1.73c3.87,0.8,4.64,1.92,4.64,3.57c0,1.95-1.77,3.37-4.95,3.37
		c-3.31,0-4.93-1.45-5.25-3.44H306.78z"/>
	<path class="st2" d="M320.02,118c0.02,2.26,1.32,3.87,3.49,3.87c2.02,0,2.67-0.91,3.08-1.72h2.22c-0.5,1.42-1.87,3.32-5.37,3.32
		c-4.01,0-5.65-2.84-5.65-5.7c0-3.3,1.91-5.94,5.79-5.94c4.12,0,5.47,2.88,5.47,5.25c0,0.34,0,0.62-0.03,0.92H320.02z
		 M326.82,116.65c-0.03-1.83-1.08-3.3-3.26-3.3c-2.25,0-3.23,1.36-3.46,3.3H326.82z"/>
	<path class="st2" d="M333.26,114.9c0-0.96,0-1.94-0.03-2.8h2.14c0.06,0.33,0.09,1.5,0.09,1.83c0.51-0.95,1.55-2.09,4.02-2.09
		c2.39,0,4.27,1.27,4.27,4.23v7.15h-2.2v-6.9c0-1.68-0.75-2.81-2.7-2.81c-2.41,0-3.38,1.59-3.38,3.83v5.88h-2.2V114.9z"/>
	<path class="st2" d="M358.83,119.81c-0.54,1.91-2.03,3.66-5.28,3.66c-3.51,0-5.69-2.2-5.69-5.76c0-3.14,2.04-5.88,5.85-5.88
		c3.68,0,4.95,2.28,5.12,3.72h-2.18c-0.32-1.13-1.13-2.11-2.98-2.11c-2.26,0-3.54,1.69-3.54,4.21c0,2.53,1.24,4.23,3.46,4.23
		c1.6,0,2.53-0.74,3.05-2.07H358.83z"/>
	<path class="st2" d="M364.07,118c0.02,2.26,1.32,3.87,3.49,3.87c2.02,0,2.67-0.91,3.08-1.72h2.22c-0.5,1.42-1.87,3.32-5.37,3.32
		c-4.01,0-5.65-2.84-5.65-5.7c0-3.3,1.91-5.94,5.79-5.94c4.12,0,5.47,2.88,5.47,5.25c0,0.34,0,0.62-0.03,0.92H364.07z
		 M370.87,116.65c-0.03-1.83-1.08-3.3-3.26-3.3c-2.25,0-3.23,1.36-3.46,3.3H370.87z"/>
	<path class="st2" d="M383.16,112.1h2.21v-3.28h2.2v3.28h2.82v1.56h-2.82v6.51c0,1.08,0.3,1.63,1.46,1.63
		c0.31,0,0.76-0.01,1.11-0.09v1.44c-0.54,0.18-1.3,0.21-1.91,0.21c-1.99,0-2.87-0.9-2.87-2.74v-6.96h-2.21V112.1z"/>
	<path class="st2" d="M396.12,107.12v6.61c0.65-0.98,1.81-1.9,3.99-1.9c2.05,0,4.3,0.98,4.3,4.28v7.09h-2.19v-6.77
		c0-1.89-0.92-2.94-2.78-2.94c-2.3,0-3.31,1.32-3.31,3.64v6.07h-2.2v-16.09H396.12z"/>
	<path class="st2" d="M418.73,120.78c0,1.01,0.1,2.1,0.18,2.42h-2.11c-0.1-0.25-0.18-0.78-0.21-1.45c-0.45,0.74-1.46,1.72-3.94,1.72
		c-3.01,0-4.3-1.71-4.3-3.4c0-2.48,2.24-3.61,6.03-3.61c0.89,0,1.7,0,2.18,0v-0.95c0-0.98-0.36-2.18-2.75-2.18
		c-2.13,0-2.49,0.92-2.72,1.79h-2.13c0.17-1.53,1.26-3.3,4.93-3.29c3.12,0.01,4.85,1.11,4.85,3.64V120.78z M416.58,117.79
		c-0.41,0-1.38,0-2.07,0c-2.54,0-3.91,0.61-3.91,2.18c0,1.16,0.91,2,2.49,2c3.07,0,3.49-1.8,3.49-3.82V117.79z"/>
	<path class="st2" d="M421.98,112.1h2.21v-3.28h2.2v3.28h2.82v1.56h-2.82v6.51c0,1.08,0.3,1.63,1.46,1.63
		c0.31,0,0.76-0.01,1.11-0.09v1.44c-0.54,0.18-1.3,0.21-1.91,0.21c-1.99,0-2.87-0.9-2.87-2.74v-6.96h-2.21V112.1z"/>
	<path class="st2" d="M440.95,107.96h6.65c3.41,0,5.74,1.66,5.74,4.44c0,2.97-2.46,4.54-5.88,4.54h-4.17v6.26h-2.34V107.96z
		 M443.29,115.24h4.06c2.4,0,3.6-1.02,3.6-2.79c0-1.86-1.45-2.79-3.51-2.79h-4.15V115.24z"/>
	<path class="st2" d="M459.37,118c0.02,2.26,1.32,3.87,3.49,3.87c2.02,0,2.67-0.91,3.08-1.72h2.22c-0.5,1.42-1.87,3.32-5.37,3.32
		c-4.01,0-5.65-2.84-5.65-5.7c0-3.3,1.91-5.94,5.79-5.94c4.12,0,5.47,2.88,5.47,5.25c0,0.34,0,0.62-0.03,0.92H459.37z
		 M466.17,116.65c-0.03-1.83-1.08-3.3-3.26-3.3c-2.25,0-3.23,1.36-3.46,3.3H466.17z"/>
	<path class="st2" d="M472.6,115.11c0-1.55-0.02-2.43-0.02-3.02h2.16c0.03,0.31,0.07,1.18,0.07,2.27c0.67-1.5,2.19-2.47,4.3-2.53
		v1.91c-2.62,0.07-4.3,1.26-4.3,4.07v5.39h-2.2V115.11z"/>
	<path class="st2" d="M483.79,123.21v-9.55h-2.06v-1.56h2.06v-1.33c0-2.04,0.9-3.86,3.72-3.86c0.47,0,1.1,0.06,1.41,0.15v1.63
		c-0.31-0.06-0.78-0.1-1.12-0.1c-1.32,0-1.81,0.69-1.81,2.31v1.21h2.56v1.56h-2.56v9.55H483.79z"/>
	<path class="st2" d="M502.73,117.63c0,3.2-2.11,5.84-6.01,5.84c-3.66,0-5.87-2.46-5.87-5.8c0-3.28,2.17-5.83,6.01-5.83
		C500.4,111.83,502.73,114.14,502.73,117.63z M493.12,117.65c0,2.44,1.4,4.21,3.69,4.21c2.34,0,3.65-1.69,3.65-4.21
		c0-2.5-1.31-4.22-3.7-4.22C494.37,113.44,493.12,115.11,493.12,117.65z"/>
	<path class="st2" d="M506.86,115.11c0-1.55-0.02-2.43-0.02-3.02h2.16c0.03,0.31,0.07,1.18,0.07,2.27c0.67-1.5,2.19-2.47,4.3-2.53
		v1.91c-2.62,0.07-4.3,1.26-4.3,4.07v5.39h-2.2V115.11z"/>
	<path class="st2" d="M516.8,114.96c0-0.96,0-1.96-0.02-2.87h2.13c0.03,0.33,0.09,1.15,0.09,1.71c0.58-0.99,1.7-1.97,3.71-1.97
		c1.81,0,3.05,0.8,3.54,1.99c0.68-1.05,1.89-1.99,4.07-1.99c2.07,0,4.02,1.06,4.02,4.07v7.3h-2.17v-7.07c0-1.29-0.53-2.65-2.53-2.65
		c-2.08,0-2.98,1.37-2.98,3.34v6.38h-2.16v-7.01c0-1.43-0.46-2.7-2.47-2.7c-2.05,0-3.04,1.44-3.04,3.56v6.15h-2.19V114.96z"/>
	<path class="st2" d="M540.35,120.03c0.37,1.21,1.4,1.93,3.13,1.93c1.88,0,2.61-0.7,2.61-1.71c0-1.04-0.59-1.52-3.02-2.04
		c-3.65-0.77-4.41-1.74-4.41-3.25c0-1.57,1.33-3.12,4.61-3.12c3.29,0,4.64,1.66,4.81,3.21h-2.13c-0.18-0.72-0.81-1.72-2.77-1.72
		c-1.79,0-2.32,0.75-2.32,1.48c0,0.83,0.52,1.24,2.87,1.73c3.87,0.8,4.64,1.92,4.64,3.57c0,1.95-1.77,3.37-4.95,3.37
		c-3.31,0-4.93-1.45-5.25-3.44H540.35z"/>
</g>
</svg>
