<svg id="Layer_1" data-name="Layer 1" xmlns="http://www.w3.org/2000/svg" xmlns:xlink="http://www.w3.org/1999/xlink" viewBox="0 0 819.46 170.88"><defs><style>.cls-1{fill:#ff8904;}.cls-2{fill:#fff;}.cls-3{fill:url(#linear-gradient);}.cls-4{fill:url(#linear-gradient-2);}.cls-5{fill:url(#linear-gradient-3);}.cls-6{fill:url(#linear-gradient-4);}.cls-7{fill:url(#linear-gradient-5);}.cls-8{fill:url(#linear-gradient-6);}.cls-9{fill:url(#linear-gradient-7);}</style><linearGradient id="linear-gradient" x1="680.19" y1="144.87" x2="849.25" y2="247.82" gradientUnits="userSpaceOnUse"><stop offset="0.04" stop-color="#9c9c9c"/><stop offset="0.67" stop-color="#e1e1e1"/><stop offset="0.98" stop-color="#fff"/></linearGradient><linearGradient id="linear-gradient-2" x1="207.06" y1="247.1" x2="306.09" y2="247.1" gradientUnits="userSpaceOnUse"><stop offset="0.04" stop-color="#9c9c9c"/><stop offset="0.07" stop-color="#a8a8a8"/><stop offset="0.13" stop-color="#c3c3c3"/><stop offset="0.21" stop-color="#d9d9d9"/><stop offset="0.3" stop-color="#eaeaea"/><stop offset="0.42" stop-color="#f6f6f6"/><stop offset="0.57" stop-color="#fdfdfd"/><stop offset="0.98" stop-color="#fff"/></linearGradient><linearGradient id="linear-gradient-3" x1="313.85" y1="247.1" x2="405.68" y2="247.1" xlink:href="#linear-gradient-2"/><linearGradient id="linear-gradient-4" x1="414.01" y1="247.1" x2="524.9" y2="247.1" xlink:href="#linear-gradient-2"/><linearGradient id="linear-gradient-5" x1="514.74" y1="247.1" x2="605.29" y2="247.1" xlink:href="#linear-gradient-2"/><linearGradient id="linear-gradient-6" x1="615.74" y1="247.1" x2="698.94" y2="247.1" xlink:href="#linear-gradient-2"/><linearGradient id="linear-gradient-7" x1="709.96" y1="247.1" x2="779.39" y2="247.1" xlink:href="#linear-gradient-2"/></defs><title>kratecx_full</title><path class="cls-1" d="M238.11,167.62c-14.07,6-28.34,11.53-42.16,18-17.18,8.09-34.31,16.32-50.59,26.2-13.44,8.15-26.52,16.74-37.11,28.54a45.44,45.44,0,0,0-6.59,9.46c-3.74,7.29-2.53,14.36,2.43,20.65a48.4,48.4,0,0,0,13.3,11.54c12.42,7.43,25.85,12.45,39.68,16.53a429.45,429.45,0,0,0,43.38,10.52c6.36,1.17,12.82,1.81,19.24,2.68-3-1.43-6-3-9.06-4.23-19.12-7.89-37.83-16.45-53.85-30-5.33-4.5-9.67-9.62-12.32-16.05-1.93-4.69-2.59-9.4-.7-14.49,2.37-6.4,6.35-11.6,10.79-16.55,11.53-12.85,25.12-23.35,39.41-32.82s29.41-18.28,44.19-27.31c3.6-2.2,7.32-4.21,11-6.3A44.7,44.7,0,0,0,238.11,167.62Z" transform="translate(-64.54 -164.06)"/><path class="cls-1" d="M118.49,222.72a24.54,24.54,0,0,1-2.55,1.91c-8.46,4.8-15.27,11.55-21.76,18.63-5.39,5.87-8.84,12.59-8.35,20.95a15.31,15.31,0,0,0,4,10,62.19,62.19,0,0,0,8.26,7.28c9.56,7.09,20.51,11.59,31.48,15.87A308.08,308.08,0,0,0,187,313.14c9.75,1.76,19.4,4.1,29.11,6.07,10.26,2.07,20.54,4,30.8,6,9.18,1.82,18.35,3.72,27.53,5.55,6.29,1.26,12.59,2.45,18.9,4.13-2.82,0-5.64.11-8.45,0-4.59-.23-9.16-.6-13.74-.94l-27.48-2.05c-5.13-.39-10.27-.69-15.38-1.23-8.94-.93-17.87-2-26.8-3q-9.57-1.14-19.11-2.5a409.69,409.69,0,0,1-59.24-12.53,258.61,258.61,0,0,1-25-8.8c-9.56-4-18.57-9-25.64-16.93-4.13-4.61-7.37-9.47-7.89-16a26.42,26.42,0,0,1,1.28-9.67c1.7-5.85,5.47-10.53,9.76-14.51,9.54-8.85,20.86-15.07,32.58-20.57,3.24-1.52,6.65-2.71,10-4.05Z" transform="translate(-64.54 -164.06)"/><path class="cls-2" d="M279.42,302.31h9.43c7.41,0,12.43,4.4,12.43,11.25s-4.89,11.71-12.55,11.71h-9.31Zm3.5,20.38h5.53c6.21,0,9.16-3.87,9.16-9.07,0-4.53-2.69-8.72-9.14-8.72h-5.55Z" transform="translate(-64.54 -164.06)"/><path class="cls-2" d="M308.24,301.05h3.32v3.61h-3.32Zm0,7.49h3.32v16.73h-3.32Z" transform="translate(-64.54 -164.06)"/><path class="cls-2" d="M335.07,323.76c0,5.36-2.55,8.42-8.82,8.42-5.83,0-7.62-2.85-8-5.12h3.38c.56,1.83,2.26,2.81,4.73,2.81,4.36,0,5.45-2.41,5.45-6.27v-1.35c-1,1.88-2.79,2.94-6,2.94-4.73,0-8-3.36-8-8.26,0-5.46,3.66-8.79,8.3-8.79,3.67,0,5.23,1.51,5.67,2.62,0-.76.11-1.87.15-2.22h3.14c0,1-.06,3.22-.06,4.83Zm-13.75-7c0,3.53,2.11,5.93,5.25,5.93,4.15,0,5.36-2.43,5.36-6.14s-1.14-6-5.25-6C323.13,310.59,321.32,313.18,321.32,316.8Z" transform="translate(-64.54 -164.06)"/><path class="cls-2" d="M342.61,301.05h3.32v3.61h-3.32Zm0,7.49h3.32v16.73h-3.32Z" transform="translate(-64.54 -164.06)"/><path class="cls-2" d="M351,308.54h3.32V303.6h3.32v4.94h4.24v2.36h-4.24v9.8c0,1.62.45,2.46,2.19,2.46a9.13,9.13,0,0,0,1.68-.14v2.17a10.07,10.07,0,0,1-2.88.31c-3,0-4.31-1.35-4.31-4.13V310.9H351Z" transform="translate(-64.54 -164.06)"/><path class="cls-2" d="M381.53,321.62a21.77,21.77,0,0,0,.27,3.65h-3.18a8.23,8.23,0,0,1-.31-2.19c-.67,1.12-2.21,2.59-5.94,2.59-4.53,0-6.47-2.57-6.47-5.12,0-3.73,3.37-5.44,9.09-5.44h3.28v-1.42c0-1.48-.55-3.28-4.14-3.28-3.21,0-3.75,1.39-4.1,2.69h-3.22c.26-2.3,1.9-5,7.42-5,4.7,0,7.3,1.68,7.3,5.49Zm-3.24-4.51h-3.11c-3.83,0-5.88.93-5.88,3.28,0,1.74,1.37,3,3.74,3,4.63,0,5.25-2.71,5.25-5.75Z" transform="translate(-64.54 -164.06)"/><path class="cls-2" d="M389.16,325.27V301.05h3.32v24.22Z" transform="translate(-64.54 -164.06)"/><path class="cls-2" d="M413,302.31h10c5.13,0,8.65,2.5,8.65,6.68,0,4.48-3.71,6.85-8.86,6.85h-6.28v9.43H413Zm3.52,11h6.11c3.61,0,5.42-1.54,5.42-4.21s-2.19-4.19-5.29-4.19h-6.24Z" transform="translate(-64.54 -164.06)"/><path class="cls-2" d="M438.32,313.09c0-2.34,0-3.66,0-4.55h3.25c.06.47.11,1.78.11,3.41,1-2.26,3.29-3.72,6.47-3.81V311c-3.94.11-6.47,1.9-6.47,6.13v8.12h-3.32Z" transform="translate(-64.54 -164.06)"/><path class="cls-2" d="M455.35,317.43c0,3.4,2,5.82,5.26,5.82,3,0,4-1.36,4.64-2.59h3.34c-.75,2.15-2.82,5-8.08,5-6.05,0-8.51-4.28-8.51-8.59,0-5,2.88-8.94,8.72-8.94,6.2,0,8.23,4.33,8.23,7.9a12.37,12.37,0,0,1-.05,1.39Zm10.24-2c0-2.75-1.63-5-4.92-5s-4.87,2.05-5.2,5Z" transform="translate(-64.54 -164.06)"/><path class="cls-2" d="M477.07,320.48c.55,1.83,2.11,2.91,4.72,2.91,2.82,0,3.93-1.06,3.93-2.58s-.88-2.29-4.55-3.07c-5.5-1.16-6.64-2.62-6.64-4.89s2-4.71,6.94-4.71,7,2.5,7.24,4.83h-3.22c-.27-1.08-1.21-2.58-4.17-2.58-2.69,0-3.49,1.12-3.49,2.22s.79,1.87,4.31,2.6c5.83,1.21,7,2.9,7,5.38,0,2.94-2.67,5.08-7.46,5.08-5,0-7.42-2.19-7.91-5.19Z" transform="translate(-64.54 -164.06)"/><path class="cls-2" d="M497,317.43c0,3.4,2,5.82,5.25,5.82,3,0,4-1.36,4.64-2.59h3.35c-.76,2.15-2.82,5-8.09,5-6,0-8.51-4.28-8.51-8.59,0-5,2.88-8.94,8.72-8.94,6.21,0,8.24,4.33,8.24,7.9a12.37,12.37,0,0,1-.05,1.39Zm10.23-2c0-2.75-1.63-5-4.91-5s-4.87,2.05-5.21,5Z" transform="translate(-64.54 -164.06)"/><path class="cls-2" d="M516.94,312.76c0-1.46,0-2.92,0-4.22h3.23a25.19,25.19,0,0,1,.13,2.75c.77-1.44,2.33-3.15,6-3.15s6.42,1.92,6.42,6.37v10.76h-3.31V314.88c0-2.53-1.14-4.23-4.07-4.23-3.63,0-5.09,2.4-5.09,5.76v8.86h-3.32Z" transform="translate(-64.54 -164.06)"/><path class="cls-2" d="M555.45,320.15c-.82,2.88-3.06,5.52-8,5.52-5.29,0-8.57-3.32-8.57-8.68,0-4.73,3.08-8.85,8.81-8.85,5.54,0,7.46,3.44,7.71,5.6h-3.29a4.17,4.17,0,0,0-4.48-3.18c-3.4,0-5.33,2.54-5.33,6.33s1.87,6.37,5.21,6.37a4.48,4.48,0,0,0,4.59-3.11Z" transform="translate(-64.54 -164.06)"/><path class="cls-2" d="M563.34,317.43c0,3.4,2,5.82,5.25,5.82,3,0,4-1.36,4.64-2.59h3.35c-.76,2.15-2.82,5-8.09,5-6,0-8.51-4.28-8.51-8.59,0-5,2.88-8.94,8.72-8.94,6.2,0,8.24,4.33,8.24,7.9a12.37,12.37,0,0,1-.05,1.39Zm10.23-2c0-2.75-1.63-5-4.91-5s-4.87,2.05-5.21,5Z" transform="translate(-64.54 -164.06)"/><path class="cls-2" d="M592.08,308.54h3.33V303.6h3.32v4.94H603v2.36h-4.24v9.8c0,1.62.45,2.46,2.19,2.46a9.13,9.13,0,0,0,1.68-.14v2.17a10.07,10.07,0,0,1-2.88.31c-3,0-4.31-1.35-4.31-4.13V310.9h-3.33Z" transform="translate(-64.54 -164.06)"/><path class="cls-2" d="M611.59,301.05v10c1-1.47,2.73-2.87,6-2.87,3.08,0,6.47,1.47,6.47,6.45v10.68h-3.3v-10.2c0-2.84-1.38-4.42-4.18-4.42-3.46,0-5,2-5,5.47v9.15h-3.32V301.05Z" transform="translate(-64.54 -164.06)"/><path class="cls-2" d="M645.64,321.62a23.26,23.26,0,0,0,.26,3.65h-3.17a7.73,7.73,0,0,1-.32-2.19c-.67,1.12-2.2,2.59-5.93,2.59-4.54,0-6.47-2.57-6.47-5.12,0-3.73,3.37-5.44,9.08-5.44h3.28v-1.42c0-1.48-.54-3.28-4.14-3.28-3.21,0-3.75,1.39-4.1,2.69h-3.21c.25-2.3,1.89-5,7.42-5,4.7,0,7.3,1.68,7.3,5.49Zm-3.24-4.51h-3.11c-3.84,0-5.89.93-5.89,3.28,0,1.74,1.37,3,3.74,3,4.63,0,5.26-2.71,5.26-5.75Z" transform="translate(-64.54 -164.06)"/><path class="cls-2" d="M650.53,308.54h3.32V303.6h3.32v4.94h4.25v2.36h-4.25v9.8c0,1.62.46,2.46,2.2,2.46A9,9,0,0,0,661,323v2.17a10,10,0,0,1-2.87.31c-3,0-4.32-1.35-4.32-4.13V310.9h-3.32Z" transform="translate(-64.54 -164.06)"/><path class="cls-2" d="M679.1,302.31h10c5.13,0,8.64,2.5,8.64,6.68,0,4.48-3.7,6.85-8.86,6.85h-6.28v9.43H679.1Zm3.52,11h6.11c3.61,0,5.42-1.54,5.42-4.21s-2.19-4.19-5.28-4.19h-6.25Z" transform="translate(-64.54 -164.06)"/><path class="cls-2" d="M706.83,317.43c0,3.4,2,5.82,5.26,5.82,3,0,4-1.36,4.64-2.59h3.34c-.75,2.15-2.82,5-8.08,5-6,0-8.51-4.28-8.51-8.59,0-5,2.88-8.94,8.72-8.94,6.2,0,8.24,4.33,8.24,7.9a10.32,10.32,0,0,1-.06,1.39Zm10.24-2c0-2.75-1.63-5-4.92-5s-4.87,2.05-5.2,5Z" transform="translate(-64.54 -164.06)"/><path class="cls-2" d="M726.75,313.09c0-2.34,0-3.66,0-4.55H730c0,.47.1,1.78.1,3.41,1-2.26,3.3-3.72,6.48-3.81V311c-3.94.11-6.48,1.9-6.48,6.13v8.12h-3.32Z" transform="translate(-64.54 -164.06)"/><path class="cls-2" d="M743.6,325.27V310.9h-3.1v-2.36h3.1v-2c0-3.08,1.36-5.82,5.6-5.82a9.36,9.36,0,0,1,2.13.22v2.45a9.15,9.15,0,0,0-1.69-.16c-2,0-2.72,1-2.72,3.49v1.82h3.85v2.36h-3.85v14.37Z" transform="translate(-64.54 -164.06)"/><path class="cls-2" d="M772.12,316.87c0,4.82-3.17,8.8-9,8.8-5.51,0-8.84-3.71-8.84-8.74s3.26-8.79,9.06-8.79C768.62,308.14,772.12,311.62,772.12,316.87Zm-14.47,0c0,3.67,2.1,6.35,5.56,6.35s5.49-2.54,5.49-6.33-2-6.36-5.57-6.36S757.65,313.09,757.65,316.9Z" transform="translate(-64.54 -164.06)"/><path class="cls-2" d="M778.34,313.09c0-2.34,0-3.66,0-4.55h3.25c.06.47.11,1.78.11,3.41,1-2.26,3.3-3.72,6.47-3.81V311c-3.94.11-6.47,1.9-6.47,6.13v8.12h-3.32Z" transform="translate(-64.54 -164.06)"/><path class="cls-2" d="M793.31,312.85c0-1.44,0-3,0-4.31h3.2a25.12,25.12,0,0,1,.13,2.57,6.09,6.09,0,0,1,5.6-3c2.72,0,4.59,1.2,5.32,3,1-1.59,2.84-3,6.12-3,3.12,0,6.06,1.61,6.06,6.13v11h-3.26V314.62c0-1.94-.8-4-3.81-4s-4.48,2.06-4.48,5v9.61h-3.26V314.72c0-2.16-.7-4.07-3.71-4.07s-4.58,2.17-4.58,5.36v9.26h-3.29Z" transform="translate(-64.54 -164.06)"/><path class="cls-2" d="M828.77,320.48c.55,1.83,2.11,2.91,4.71,2.91,2.83,0,3.93-1.06,3.93-2.58s-.88-2.29-4.55-3.07c-5.49-1.16-6.64-2.62-6.64-4.89s2-4.71,6.94-4.71,7,2.5,7.24,4.83h-3.21c-.27-1.08-1.22-2.58-4.17-2.58-2.69,0-3.49,1.12-3.49,2.22s.79,1.87,4.31,2.6c5.83,1.21,7,2.9,7,5.38,0,2.94-2.67,5.08-7.45,5.08-5,0-7.42-2.19-7.91-5.19Z" transform="translate(-64.54 -164.06)"/><polygon class="cls-1" points="814.79 24.04 768.4 72.38 817.13 122.25 779.71 122.25 725.93 70.81 779.71 21.7 819.46 21.7 814.79 24.04"/><path class="cls-3" d="M736.38,182.11h41.38a1.74,1.74,0,0,1,1.36.47q12,11.52,24.08,23l6.25,6-22.37,21q-25.43-25.16-50.79-50.22Z" transform="translate(-64.54 -164.06)"/><path class="cls-4" d="M252.41,246l53.68,41h-27l-42-32.91H225.57v32.91H207.06V207.26h18.51v31.5H238l16.74-13.7q14.47-11.87,22.11-17.8H302Z" transform="translate(-64.54 -164.06)"/><path class="cls-5" d="M405.54,273.37v13.56H387v-8.19a48.51,48.51,0,0,0-.64-9.25,8.71,8.71,0,0,0-3.32-5.16,13.56,13.56,0,0,0-7-2.61,121.18,121.18,0,0,0-12.78-.5H332.36v25.71H313.85V207.26h60q19.08,0,25.43,4.8T405.68,231v3q0,8.76-3.11,13.35T393,253.74q7.49,1.55,10,5.44T405.54,273.37Zm-73.18-26.13h36c7.54,0,12.5-.8,14.91-2.4s3.6-4.71,3.6-9.33v-1.69q0-8.06-3.39-10.17t-16.11-2.12h-35Z" transform="translate(-64.54 -164.06)"/><path class="cls-6" d="M480.69,207.26l44.21,79.67H504.14l-8.34-15.68H442.4l-8.33,15.68H414l44.64-79.67Zm-30.94,50.43h39.13q-3.81-7.2-19.5-36.73-3.94,7.06-10.59,19.64T449.75,257.69Z" transform="translate(-64.54 -164.06)"/><path class="cls-7" d="M569.26,222.09v64.84h-18.5V222.09h-36V207.26h90.55v14.83Z" transform="translate(-64.54 -164.06)"/><path class="cls-8" d="M698.94,272.1v14.83h-83.2V207.26H698.1v14.41H634.24v17.52h60.61v14.12H634.24V272.1Z" transform="translate(-64.54 -164.06)"/><path class="cls-9" d="M775.37,272.6q-4.82.34-12.86.35h-2.4q-7.92,0-12.43-.21a44.39,44.39,0,0,1-8.55-1.2,14.57,14.57,0,0,1-5.72-2.41,12,12,0,0,1-3-4.52,21.19,21.19,0,0,1-1.62-6.78c-.19-2.44-.28-5.79-.28-10v-1.41q0-6.36.28-10a22,22,0,0,1,1.62-6.85,12,12,0,0,1,3-4.59,15.27,15.27,0,0,1,5.72-2.47,40.77,40.77,0,0,1,8.55-1.27q4.52-.23,12.43-.22h2.4a129.8,129.8,0,0,1,16.88.82V206.72q-6.75-.45-16.31-.45h-3.54q-11.43,0-18.64.5A64.93,64.93,0,0,0,727.69,209a26.22,26.22,0,0,0-9.11,4.16,18.67,18.67,0,0,0-5.23,7.28A35.68,35.68,0,0,0,710.6,231a140.89,140.89,0,0,0-.64,15v2.26a140.93,140.93,0,0,0,.64,14.9,33.67,33.67,0,0,0,2.82,10.6,19.66,19.66,0,0,0,5.37,7.27,26.07,26.07,0,0,0,9.11,4.24A63.87,63.87,0,0,0,741,287.43q7.2.49,18.5.49h3.54q9.27,0,16.31-.54V272.2C778.15,272.36,776.81,272.49,775.37,272.6Z" transform="translate(-64.54 -164.06)"/></svg>